<?xml version="1.0" encoding="utf-8"?>
<!-- Generator: Adobe Illustrator 20.0.0, SVG Export Plug-In . SVG Version: 6.00 Build 0)  -->
<svg version="1.1" id="apple" xmlns="http://www.w3.org/2000/svg" xmlns:xlink="http://www.w3.org/1999/xlink" x="0px" y="0px"
   viewBox="0 0 960 960" enable-background="new 0 0 960 960" xml:space="preserve">
<g id="leaf-background-left">
  <path fill="#98D9D5" d="M840-420c-198.8,0-360,161.2-360,360c0,41.2,6.9,80.9,19.7,117.8c1.1,0.1,2.1,0.2,3.2,0.3l374.2-476.2
    C864.9-419.3,852.5-420,840-420z"/>
</g>
<g id="leaf-background-right">
  <path fill="#6DA8D6" d="M877.1-418.1L502.9,58.1c12.2,1.2,24.6,1.9,37.1,1.9c198.8,0,360-161.2,360-360c0-41.2-6.9-80.9-19.7-117.8
    C879.2-417.9,878.1-418,877.1-418.1z"/>
</g>
<g id="body-background">
  <path fill="#FF4040" d="M930.3,513.2c19-36.9,29.7-78.8,29.7-123.2c0-149.1-120.9-270-270-270c-84.8,0-160.5,39.1-210,100.3
    C430.5,159.1,354.8,120,270,120C120.9,120,0,240.9,0,390c0,44.4,10.7,86.2,29.7,123.2c99.5,204,100.7,206.6,167.1,342.8
    C225.4,917.4,287.7,960,360,960c43.7,0,83.7-15.5,114.8-41.4c1.7-1.4,3.5-2.9,5.2-4.3c1.7,1.4,3.4,2.8,5.2,4.3
    C516.3,944.5,556.3,960,600,960c72.3,0,134.6-42.6,163.2-104.1C829.6,719.7,830.9,717.2,930.3,513.2z"/>
</g>
<path id="body-stroke" fill="#082947" d="M690,180c56.1,0,108.8,21.8,148.5,61.5S900,333.9,900,390c0,33.8-7.8,66-23,95.8
  c-0.2,0.4-0.4,0.7-0.6,1.1l-137,280.9l-30.1,61.8c-0.2,0.3-0.3,0.6-0.5,0.9c-9.5,20.4-24.6,37.8-43.6,50.1
  c-19.4,12.6-42,19.3-65.3,19.3c-28.3,0-54.8-9.5-76.5-27.6c0,0,0,0,0,0l-5.2-4.3c-11.1-9.2-24.7-13.8-38.3-13.8s-27.2,4.6-38.3,13.8
  l-5.2,4.3c0,0,0,0,0,0c-21.7,18-48.2,27.6-76.5,27.6c-23.3,0-45.9-6.7-65.3-19.3c-19-12.3-34-29.7-43.6-50.1
  c-0.1-0.3-0.3-0.6-0.5-0.9l-30.1-61.8l-137-280.9c-0.2-0.4-0.4-0.7-0.6-1.1c-15.3-29.8-23-62-23-95.8c0-56.1,21.8-108.8,61.5-148.5
  S213.9,180,270,180c63.7,0,123.2,28.4,163.4,78c11.4,14.1,28.5,22.3,46.6,22.3s35.3-8.2,46.6-22.3C566.8,208.4,626.3,180,690,180
   M690,120c-84.8,0-160.5,39.1-210,100.3C430.5,159.1,354.8,120,270,120C120.9,120,0,240.9,0,390c0,44.4,10.7,86.2,29.7,123.2
  c99.5,204,100.7,206.6,167.1,342.8C225.4,917.4,287.7,960,360,960c43.7,0,83.7-15.5,114.8-41.4c1.7-1.4,3.5-2.9,5.2-4.3
  c1.7,1.4,3.4,2.8,5.2,4.3C516.3,944.5,556.3,960,600,960c72.3,0,134.6-42.6,163.2-104.1c66.4-136.2,67.6-138.7,167.1-342.8
  c19-36.9,29.7-78.8,29.7-123.2C960,240.9,839.1,120,690,120L690,120z"/>
<g id="eye-left" opacity="0.8">
  <circle fill="#082947" cx="300" cy="420" r="60"/>
</g>
<g id="eye-right" opacity="0.8">
  <circle fill="#082947" cx="660" cy="420" r="60"/>
</g>
<path id="mouth" fill="#FFFFFF" d="M360,540c0,66.3,53.7,120,120,120s120-53.7,120-120"/>
<g id="cheek_x5F_right" opacity="0.3">
  <ellipse fill="#082947" cx="720" cy="570" rx="60" ry="30"/>
</g>
<g id="cheek_x5F_left" opacity="0.3">
  <ellipse fill="#082947" cx="240" cy="570" rx="60" ry="30"/>
</g>
<g id="branch">
  <path fill="#082947" d="M420,210c0,10.1-0.6,20.1-1.7,30h60.3c0.9-9.9,1.4-19.9,1.4-30c0-172.1-131.8-313.5-300-328.6v60.3
    C315-43.4,420,71,420,210z"/>
</g>
<path id="leaf-stroke" fill="#082947" d="M834-359.9c4,19.6,6,39.7,6,59.9c0,40.5-7.9,79.8-23.6,116.8
  c-15.1,35.7-36.7,67.8-64.3,95.4c-27.6,27.6-59.7,49.2-95.4,64.3C621.6-8.7,584.4-0.8,546-0.1c-4-19.6-6-39.7-6-59.9
  c0-40.5,7.9-79.8,23.6-116.8c15.1-35.7,36.7-67.8,64.3-95.4c27.6-27.6,59.7-49.2,95.4-64.3C758.4-351.3,795.6-359.2,834-359.9
   M840-420c-198.8,0-360,161.2-360,360c0,41.2,6.9,80.9,19.7,117.8c13.2,1.5,26.7,2.2,40.3,2.2c198.8,0,360-161.2,360-360
  c0-41.2-6.9-80.9-19.7-117.8C867.1-419.2,853.6-420,840-420L840-420z"/>
</svg>
